<mxfile host="app.diagrams.net" modified="2024-03-01T05:32:02.046Z" agent="Mozilla/5.0 (Windows NT 10.0; Win64; x64) AppleWebKit/537.36 (KHTML, like Gecko) Chrome/122.0.0.0 Safari/537.36 Edg/122.0.0.0" etag="uUAK-f4MQ3bp3RXWvBvI" version="24.0.0" type="github">
  <diagram id="C5RBs43oDa-KdzZeNtuy" name="Page-1">
    <mxGraphModel dx="832" dy="447" grid="1" gridSize="10" guides="1" tooltips="1" connect="1" arrows="1" fold="1" page="1" pageScale="1" pageWidth="827" pageHeight="1169" background="none" math="0" shadow="0">
      <root>
        <mxCell id="WIyWlLk6GJQsqaUBKTNV-0" />
        <mxCell id="WIyWlLk6GJQsqaUBKTNV-1" parent="WIyWlLk6GJQsqaUBKTNV-0" />
        <mxCell id="Z5EwPpR5pcN6arZmVPIq-8" style="edgeStyle=orthogonalEdgeStyle;rounded=0;orthogonalLoop=1;jettySize=auto;html=1;exitX=0.5;exitY=1;exitDx=0;exitDy=0;entryX=0.5;entryY=0;entryDx=0;entryDy=0;" edge="1" parent="WIyWlLk6GJQsqaUBKTNV-1" source="WuzCzDK2jLKwMSGD9dU1-0" target="WuzCzDK2jLKwMSGD9dU1-2">
          <mxGeometry relative="1" as="geometry" />
        </mxCell>
        <mxCell id="WuzCzDK2jLKwMSGD9dU1-0" value="Sí" style="rounded=0;whiteSpace=wrap;html=1;" parent="WIyWlLk6GJQsqaUBKTNV-1" vertex="1">
          <mxGeometry x="390" y="440" width="40" height="30" as="geometry" />
        </mxCell>
        <mxCell id="Z5EwPpR5pcN6arZmVPIq-9" style="edgeStyle=orthogonalEdgeStyle;rounded=0;orthogonalLoop=1;jettySize=auto;html=1;exitX=0.5;exitY=1;exitDx=0;exitDy=0;entryX=0.5;entryY=0;entryDx=0;entryDy=0;" edge="1" parent="WIyWlLk6GJQsqaUBKTNV-1" source="WuzCzDK2jLKwMSGD9dU1-2" target="Z5EwPpR5pcN6arZmVPIq-7">
          <mxGeometry relative="1" as="geometry" />
        </mxCell>
        <mxCell id="WuzCzDK2jLKwMSGD9dU1-2" value="Reajustar Stock" style="rounded=0;whiteSpace=wrap;html=1;" parent="WIyWlLk6GJQsqaUBKTNV-1" vertex="1">
          <mxGeometry x="335" y="500" width="150" height="40" as="geometry" />
        </mxCell>
        <mxCell id="Z5EwPpR5pcN6arZmVPIq-22" style="edgeStyle=orthogonalEdgeStyle;rounded=0;orthogonalLoop=1;jettySize=auto;html=1;exitX=0.5;exitY=1;exitDx=0;exitDy=0;entryX=0.5;entryY=0;entryDx=0;entryDy=0;" edge="1" parent="WIyWlLk6GJQsqaUBKTNV-1" source="WuzCzDK2jLKwMSGD9dU1-3" target="WuzCzDK2jLKwMSGD9dU1-9">
          <mxGeometry relative="1" as="geometry" />
        </mxCell>
        <mxCell id="WuzCzDK2jLKwMSGD9dU1-3" value="Mostrar actualización de Stock" style="rounded=0;whiteSpace=wrap;html=1;" parent="WIyWlLk6GJQsqaUBKTNV-1" vertex="1">
          <mxGeometry x="335" y="740" width="150" height="40" as="geometry" />
        </mxCell>
        <mxCell id="Z5EwPpR5pcN6arZmVPIq-3" style="edgeStyle=orthogonalEdgeStyle;rounded=0;orthogonalLoop=1;jettySize=auto;html=1;exitX=0.5;exitY=1;exitDx=0;exitDy=0;entryX=0.5;entryY=0;entryDx=0;entryDy=0;" edge="1" parent="WIyWlLk6GJQsqaUBKTNV-1" source="WuzCzDK2jLKwMSGD9dU1-6" target="Z5EwPpR5pcN6arZmVPIq-0">
          <mxGeometry relative="1" as="geometry" />
        </mxCell>
        <mxCell id="WuzCzDK2jLKwMSGD9dU1-6" value="Seleccionar Producto" style="shape=parallelogram;perimeter=parallelogramPerimeter;whiteSpace=wrap;html=1;fixedSize=1;" parent="WIyWlLk6GJQsqaUBKTNV-1" vertex="1">
          <mxGeometry x="330" y="170" width="160" height="40" as="geometry" />
        </mxCell>
        <mxCell id="WuzCzDK2jLKwMSGD9dU1-7" value="&lt;span style=&quot;font-size: 16px;&quot;&gt;&lt;b&gt;REAJUSTE EN EL STOCK&lt;/b&gt;&lt;/span&gt;" style="text;html=1;align=center;verticalAlign=middle;resizable=0;points=[];autosize=1;strokeColor=none;fillColor=none;" parent="WIyWlLk6GJQsqaUBKTNV-1" vertex="1">
          <mxGeometry x="150" y="70" width="220" height="30" as="geometry" />
        </mxCell>
        <mxCell id="WuzCzDK2jLKwMSGD9dU1-12" style="edgeStyle=orthogonalEdgeStyle;rounded=0;orthogonalLoop=1;jettySize=auto;html=1;exitX=0.5;exitY=1;exitDx=0;exitDy=0;entryX=0.5;entryY=0;entryDx=0;entryDy=0;" parent="WIyWlLk6GJQsqaUBKTNV-1" source="WuzCzDK2jLKwMSGD9dU1-8" target="WuzCzDK2jLKwMSGD9dU1-6" edge="1">
          <mxGeometry relative="1" as="geometry" />
        </mxCell>
        <mxCell id="WuzCzDK2jLKwMSGD9dU1-8" value="&lt;b&gt;INICIO&lt;/b&gt;" style="ellipse;whiteSpace=wrap;html=1;" parent="WIyWlLk6GJQsqaUBKTNV-1" vertex="1">
          <mxGeometry x="370" y="90" width="80" height="40" as="geometry" />
        </mxCell>
        <mxCell id="WuzCzDK2jLKwMSGD9dU1-9" value="&lt;b&gt;FIN&lt;/b&gt;" style="ellipse;whiteSpace=wrap;html=1;" parent="WIyWlLk6GJQsqaUBKTNV-1" vertex="1">
          <mxGeometry x="370" y="820" width="80" height="40" as="geometry" />
        </mxCell>
        <mxCell id="Z5EwPpR5pcN6arZmVPIq-6" style="edgeStyle=orthogonalEdgeStyle;rounded=0;orthogonalLoop=1;jettySize=auto;html=1;exitX=1;exitY=0.5;exitDx=0;exitDy=0;" edge="1" parent="WIyWlLk6GJQsqaUBKTNV-1" source="WuzCzDK2jLKwMSGD9dU1-15" target="WuzCzDK2jLKwMSGD9dU1-19">
          <mxGeometry relative="1" as="geometry" />
        </mxCell>
        <mxCell id="Z5EwPpR5pcN6arZmVPIq-11" style="edgeStyle=orthogonalEdgeStyle;rounded=0;orthogonalLoop=1;jettySize=auto;html=1;exitX=0.5;exitY=1;exitDx=0;exitDy=0;entryX=0.5;entryY=0;entryDx=0;entryDy=0;" edge="1" parent="WIyWlLk6GJQsqaUBKTNV-1" source="WuzCzDK2jLKwMSGD9dU1-15" target="WuzCzDK2jLKwMSGD9dU1-0">
          <mxGeometry relative="1" as="geometry" />
        </mxCell>
        <mxCell id="WuzCzDK2jLKwMSGD9dU1-15" value="&lt;font style=&quot;font-size: 11px;&quot;&gt;¿Reajustar Stock?&lt;/font&gt;" style="rhombus;whiteSpace=wrap;html=1;" parent="WIyWlLk6GJQsqaUBKTNV-1" vertex="1">
          <mxGeometry x="355" y="330" width="110" height="80" as="geometry" />
        </mxCell>
        <mxCell id="Z5EwPpR5pcN6arZmVPIq-23" style="edgeStyle=orthogonalEdgeStyle;rounded=0;orthogonalLoop=1;jettySize=auto;html=1;exitX=0.5;exitY=1;exitDx=0;exitDy=0;entryX=1;entryY=0.5;entryDx=0;entryDy=0;" edge="1" parent="WIyWlLk6GJQsqaUBKTNV-1" source="WuzCzDK2jLKwMSGD9dU1-19" target="WuzCzDK2jLKwMSGD9dU1-9">
          <mxGeometry relative="1" as="geometry" />
        </mxCell>
        <mxCell id="WuzCzDK2jLKwMSGD9dU1-19" value="No" style="rounded=0;whiteSpace=wrap;html=1;" parent="WIyWlLk6GJQsqaUBKTNV-1" vertex="1">
          <mxGeometry x="530" y="355" width="40" height="30" as="geometry" />
        </mxCell>
        <mxCell id="Z5EwPpR5pcN6arZmVPIq-4" style="edgeStyle=orthogonalEdgeStyle;rounded=0;orthogonalLoop=1;jettySize=auto;html=1;exitX=0.5;exitY=1;exitDx=0;exitDy=0;entryX=0.5;entryY=0;entryDx=0;entryDy=0;" edge="1" parent="WIyWlLk6GJQsqaUBKTNV-1" source="Z5EwPpR5pcN6arZmVPIq-0" target="WuzCzDK2jLKwMSGD9dU1-15">
          <mxGeometry relative="1" as="geometry" />
        </mxCell>
        <mxCell id="Z5EwPpR5pcN6arZmVPIq-0" value="Mostrar cantidad de productos actual en el sistema" style="rounded=0;whiteSpace=wrap;html=1;" vertex="1" parent="WIyWlLk6GJQsqaUBKTNV-1">
          <mxGeometry x="350" y="240" width="120" height="60" as="geometry" />
        </mxCell>
        <mxCell id="Z5EwPpR5pcN6arZmVPIq-13" style="edgeStyle=orthogonalEdgeStyle;rounded=0;orthogonalLoop=1;jettySize=auto;html=1;exitX=0;exitY=0.5;exitDx=0;exitDy=0;entryX=1;entryY=0.5;entryDx=0;entryDy=0;" edge="1" parent="WIyWlLk6GJQsqaUBKTNV-1" source="Z5EwPpR5pcN6arZmVPIq-7" target="Z5EwPpR5pcN6arZmVPIq-10">
          <mxGeometry relative="1" as="geometry" />
        </mxCell>
        <mxCell id="Z5EwPpR5pcN6arZmVPIq-19" style="edgeStyle=orthogonalEdgeStyle;rounded=0;orthogonalLoop=1;jettySize=auto;html=1;exitX=0.5;exitY=1;exitDx=0;exitDy=0;entryX=0.5;entryY=0;entryDx=0;entryDy=0;" edge="1" parent="WIyWlLk6GJQsqaUBKTNV-1" source="Z5EwPpR5pcN6arZmVPIq-7" target="Z5EwPpR5pcN6arZmVPIq-17">
          <mxGeometry relative="1" as="geometry" />
        </mxCell>
        <mxCell id="Z5EwPpR5pcN6arZmVPIq-7" value="&lt;span id=&quot;docs-internal-guid-9a6e01ef-7fff-d887-948c-32aec0bb3f52&quot;&gt;&lt;span style=&quot;font-family: Arial, sans-serif; background-color: transparent; font-variant-numeric: normal; font-variant-east-asian: normal; font-variant-alternates: normal; font-variant-position: normal; vertical-align: baseline; white-space-collapse: preserve; font-size: 10px;&quot;&gt;¿Más productos para reajustar stock?&lt;/span&gt;&lt;/span&gt;" style="rhombus;whiteSpace=wrap;html=1;" vertex="1" parent="WIyWlLk6GJQsqaUBKTNV-1">
          <mxGeometry x="355" y="570" width="110" height="80" as="geometry" />
        </mxCell>
        <mxCell id="Z5EwPpR5pcN6arZmVPIq-16" style="edgeStyle=orthogonalEdgeStyle;rounded=0;orthogonalLoop=1;jettySize=auto;html=1;exitX=0.5;exitY=0;exitDx=0;exitDy=0;entryX=0;entryY=0.5;entryDx=0;entryDy=0;elbow=vertical;" edge="1" parent="WIyWlLk6GJQsqaUBKTNV-1" source="Z5EwPpR5pcN6arZmVPIq-10" target="WuzCzDK2jLKwMSGD9dU1-6">
          <mxGeometry relative="1" as="geometry">
            <Array as="points">
              <mxPoint x="310" y="190" />
            </Array>
          </mxGeometry>
        </mxCell>
        <mxCell id="Z5EwPpR5pcN6arZmVPIq-10" value="Sí" style="rounded=0;whiteSpace=wrap;html=1;" vertex="1" parent="WIyWlLk6GJQsqaUBKTNV-1">
          <mxGeometry x="290" y="595" width="40" height="30" as="geometry" />
        </mxCell>
        <mxCell id="Z5EwPpR5pcN6arZmVPIq-21" style="edgeStyle=orthogonalEdgeStyle;rounded=0;orthogonalLoop=1;jettySize=auto;html=1;exitX=0.5;exitY=1;exitDx=0;exitDy=0;entryX=0.5;entryY=0;entryDx=0;entryDy=0;" edge="1" parent="WIyWlLk6GJQsqaUBKTNV-1" source="Z5EwPpR5pcN6arZmVPIq-17" target="WuzCzDK2jLKwMSGD9dU1-3">
          <mxGeometry relative="1" as="geometry" />
        </mxCell>
        <mxCell id="Z5EwPpR5pcN6arZmVPIq-17" value="No" style="rounded=0;whiteSpace=wrap;html=1;" vertex="1" parent="WIyWlLk6GJQsqaUBKTNV-1">
          <mxGeometry x="390" y="680" width="40" height="30" as="geometry" />
        </mxCell>
      </root>
    </mxGraphModel>
  </diagram>
</mxfile>
